<svg height="40" viewBox="0 0 40 40" width="40" xmlns="http://www.w3.org/2000/svg"><path d="m18 0c-9.94500003 0-18 3.97777776-18 8.88888891 0 4.91111119 8.05500003 8.88888889 18 8.88888889 9.945 0 18-3.9777778 18-8.88888889 0-4.9111111-8.055-8.88888891-18-8.88888891m-18 13.3333333v6.6666667c0 4.9111111 8.05500003 8.8888889 18 8.8888889 9.945 0 18-3.9777778 18-8.8888889v-6.6666667c0 4.9111111-8.055 8.8888889-18 8.8888889-9.94499997 0-18-3.9777777-18-8.8888889m0 11.1111111v6.6666667c0 4.9111111 8.05500003 8.8888889 18 8.8888889 9.945 0 18-3.9777778 18-8.8888889v-6.6666667c0 4.9111111-8.055 8.8888889-18 8.8888889-9.94499997 0-18-3.9777777-18-8.8888889z" fill="#009ac7" transform="matrix(-1 0 0 1 38 0)"/></svg>