<?xml version="1.0" encoding="UTF-8"?>
<svg width="39px" height="39px" viewBox="0 0 39 39" version="1.1" xmlns="http://www.w3.org/2000/svg" xmlns:xlink="http://www.w3.org/1999/xlink">
    <title>Artboard</title>
    <g id="Artboard" stroke="none" stroke-width="1" fill="none" fill-rule="evenodd">
        <g id="Group" transform="translate(0.300000, 0.000000)" fill="#009AC7" fill-rule="nonzero">
            <g id="moor_inspector" transform="translate(0.100000, 0.100000)">
                <polygon id="Path" points="20.9 28.5312353 6.94 3.47953845 0 9.24069374 15.9787288 36.5981595 20 36.5981595"></polygon>
                <path d="M6.94,18.5217447 L6.94,3.47953845 L0,0 L0,24.2 L0,39.07 L6.94,36.54 C7.34765557,36.423572 7.34765557,30.4174869 6.94,18.5217447 Z" id="Path"></path>
            </g>
            <g id="moor_inspector">
                <polygon id="Path" points="21 28.6312353 6.94 3.47953845 0 9.24069374 19.5232676 36.5981595 19.5232676 33.6130546"></polygon>
                <path d="M6.94,18.5217447 L6.94,3.47953845 L0,0 L0,24.2 L0,39.07 L6.94,36.54 C7.34765557,36.423572 7.34765557,30.4174869 6.94,18.5217447 Z" id="Path"></path>
            </g>
            <g id="moor_inspector" transform="translate(28.000000, 20.100000) scale(-1, 1) translate(-28.000000, -20.100000) translate(17.500000, 0.100000)">
                <polygon id="Path" points="20.9 28.5312353 6.94 3.47953845 0 9.24069374 15.9787288 36.5981595 20 36.5981595"></polygon>
                <path d="M6.94,18.5217447 L6.94,3.47953845 L0,0 L0,24.2 L0,39.07 L6.94,36.54 C7.34765557,36.423572 7.34765557,30.4174869 6.94,18.5217447 Z" id="Path"></path>
            </g>
            <g id="moor_inspector" transform="translate(27.900000, 20.000000) scale(-1, 1) translate(-27.900000, -20.000000) translate(17.400000, 0.000000)">
                <polygon id="Path" points="21 28.6312353 6.94 3.47953845 0 9.24069374 19.5232676 36.5981595 19.5232676 33.6130546"></polygon>
                <path d="M6.94,18.5217447 L6.94,3.47953845 L0,0 L0,24.2 L0,39.07 L6.94,36.54 C7.34765557,36.423572 7.34765557,30.4174869 6.94,18.5217447 Z" id="Path"></path>
            </g>
        </g>
    </g>
</svg>