<?xml version="1.0" encoding="UTF-8"?>
<svg width="40px" height="40px" viewBox="0 0 40 40" version="1.1" xmlns="http://www.w3.org/2000/svg" xmlns:xlink="http://www.w3.org/1999/xlink">
    <title>Artboard</title>
    <g id="Artboard" stroke="none" stroke-width="1" fill="none" fill-rule="evenodd">
        <g id="moor_inspector" transform="translate(2.000000, 2.000000)" fill="#009AC7" fill-rule="nonzero">
            <g transform="translate(0.369231, 0.087805)" id="Path">
                <polygon points="19.2923077 25.0518164 6.40615385 3.05520449 0 8.11377987 14.7495958 32.1349693 18.4615385 32.1349693"></polygon>
                <path d="M6.40615385,16.2629953 L6.40615385,3.05520449 L0,0 L0,21.2487805 L0,34.3053659 L6.40615385,32.0839024 C6.7824513,31.981673 6.7824513,26.7080373 6.40615385,16.2629953 Z"></path>
            </g>
            <g transform="translate(0.276923, 0.000000)" id="Path">
                <polygon points="19.3846154 25.1396212 6.40615385 3.05520449 0 8.11377987 18.0214778 32.1349693 18.0214778 29.5139016"></polygon>
                <path d="M6.40615385,16.2629953 L6.40615385,3.05520449 L0,0 L0,21.2487805 L0,34.3053659 L6.40615385,32.0839024 C6.7824513,31.981673 6.7824513,26.7080373 6.40615385,16.2629953 Z"></path>
            </g>
            <g transform="translate(26.123077, 17.648780) scale(-1, 1) translate(-26.123077, -17.648780) translate(16.430769, 0.087805)" id="Path">
                <polygon points="19.2923077 25.0518164 6.40615385 3.05520449 0 8.11377987 14.7495958 32.1349693 18.4615385 32.1349693"></polygon>
                <path d="M6.40615385,16.2629953 L6.40615385,3.05520449 L0,0 L0,21.2487805 L0,34.3053659 L6.40615385,32.0839024 C6.7824513,31.981673 6.7824513,26.7080373 6.40615385,16.2629953 Z"></path>
            </g>
            <g transform="translate(26.030769, 17.560976) scale(-1, 1) translate(-26.030769, -17.560976) translate(16.338462, 0.000000)" id="Path">
                <polygon points="19.3846154 25.1396212 6.40615385 3.05520449 0 8.11377987 18.0214778 32.1349693 18.0214778 29.5139016"></polygon>
                <path d="M6.40615385,16.2629953 L6.40615385,3.05520449 L0,0 L0,21.2487805 L0,34.3053659 L6.40615385,32.0839024 C6.7824513,31.981673 6.7824513,26.7080373 6.40615385,16.2629953 Z"></path>
            </g>
        </g>
    </g>
</svg>